<?xml version="1.0" standalone="no"?>
<!DOCTYPE svg PUBLIC "-//W3C//DTD SVG 20010904//EN"
 "http://www.w3.org/TR/2001/REC-SVG-20010904/DTD/svg10.dtd">
<svg version="1.0" xmlns="http://www.w3.org/2000/svg"
 width="136.000000pt" height="96.000000pt" viewBox="0 0 136.000000 96.000000"
 preserveAspectRatio="xMidYMid meet">

<g transform="translate(0.000000,96.000000) scale(0.100000,-0.100000)"
fill="#000000" stroke="none">
<path d="M0 480 l0 -480 680 0 680 0 0 480 0 480 -680 0 -680 0 0 -480z m685
170 l0 -145 -64 -3 c-45 -2 -67 1 -72 10 -11 16 -12 272 -2 282 4 4 37 6 73 4
l65 -3 0 -145z m-387 -17 l-3 -128 -64 -3 c-45 -2 -67 1 -72 10 -10 15 -12
232 -2 241 3 4 37 7 75 7 l69 0 -3 -127z m191 53 c8 -9 11 -45 9 -98 l-3 -83
-72 -3 -73 -3 0 94 c0 51 3 97 7 100 13 13 120 7 132 -7z m396 -59 c4 -13 5
-46 3 -73 l-3 -49 -70 0 -70 0 -3 59 c-4 84 -3 86 72 86 60 0 66 -2 71 -23z
m-472 -190 c15 -9 30 -32 35 -50 l8 -32 -60 -3 c-46 -2 -63 1 -72 12 -7 10
-27 16 -53 16 -34 0 -42 -3 -39 -17 2 -13 23 -20 88 -30 108 -18 134 -36 138
-93 4 -51 -11 -83 -45 -99 -13 -6 -76 -11 -139 -11 -114 0 -116 0 -145 29 -19
20 -29 40 -29 60 l0 31 60 0 c49 0 61 -3 70 -20 8 -15 21 -20 55 -20 24 0 46
4 49 8 11 18 -14 30 -97 45 -116 21 -137 35 -137 90 0 34 6 49 28 69 36 34 50
37 163 35 71 -2 103 -7 122 -20z m370 10 c41 -18 57 -37 64 -81 l6 -36 -66 0
c-60 0 -66 2 -69 23 -3 19 -9 22 -53 22 l-50 0 0 -80 0 -80 50 0 c49 0 50 0
53 33 l3 33 62 -3 62 -3 -1 -49 c0 -40 -5 -53 -28 -72 -25 -22 -35 -24 -151
-24 -117 0 -126 1 -152 24 -27 23 -28 29 -31 128 -3 93 -2 106 18 130 12 15
36 32 53 37 50 14 193 13 230 -2z m366 7 c47 -10 81 -46 81 -89 l0 -35 -65 0
c-63 0 -65 1 -65 25 0 23 -3 25 -50 25 l-50 0 0 -85 0 -85 49 0 c49 0 50 1 53
33 l3 32 60 0 60 0 3 -46 c3 -41 0 -49 -28 -73 -30 -25 -37 -26 -146 -26 -119
0 -165 12 -178 45 -3 9 -6 65 -6 124 0 118 6 133 66 151 35 10 169 13 213 4z"/>
</g>
</svg>
